<?xml version="1.0" encoding="utf-8"?>
<!-- Generator: Adobe Illustrator 25.2.3, SVG Export Plug-In . SVG Version: 6.00 Build 0)  -->
<svg version="1.1" id="store" xmlns="http://www.w3.org/2000/svg" xmlns:xlink="http://www.w3.org/1999/xlink" x="0px" y="0px"
	 viewBox="0 0 24 24" style="enable-background:new 0 0 24 24;" xml:space="preserve">
<path style="fill:none;" d="M0,0h24v24H0V0z"/>
<g>
	<path style="fill:none;" d="M0,0h24v24H0V0z"/>
	
		<line style="fill:none;stroke:#000000;stroke-width:1.5;stroke-linecap:round;stroke-linejoin:round;stroke-miterlimit:7.3333;" x1="3" y1="21" x2="21" y2="21"/>
	
		<path style="fill:none;stroke:#000000;stroke-width:1.5;stroke-linecap:round;stroke-linejoin:round;stroke-miterlimit:7.3333;" d="
		M3,7v1c0,1.66,1.34,3,3,3s3-1.34,3-3V7 M9,8c0,1.66,1.34,3,3,3s3-1.34,3-3V7 M15,8c0,1.66,1.34,3,3,3s3-1.34,3-3V7H3l2-4h14l2,4"/>
	
		<line style="fill:none;stroke:#000000;stroke-width:1.5;stroke-linecap:round;stroke-linejoin:round;stroke-miterlimit:7.3333;" x1="5" y1="21" x2="5" y2="10.85"/>
	
		<line style="fill:none;stroke:#000000;stroke-width:1.5;stroke-linecap:round;stroke-linejoin:round;stroke-miterlimit:7.3333;" x1="19" y1="21" x2="19" y2="10.85"/>
	
		<path style="fill:none;stroke:#000000;stroke-width:1.5;stroke-linecap:round;stroke-linejoin:round;stroke-miterlimit:7.3333;" d="
		M9,21v-4c0-1.1,0.9-2,2-2h2c1.1,0,2,0.9,2,2v4"/>
</g>
</svg>
